<svg xmlns="http://www.w3.org/2000/svg" width="10.427" height="15.487" viewBox="0 0 10.427 15.487">
  <g id="noun-certificate-426773" transform="translate(-171.777 -14.573)">
    <path id="Path_20" data-name="Path 20" d="M176.982,17.288a2.388,2.388,0,1,0,2.388,2.388A2.391,2.391,0,0,0,176.982,17.288Zm.18,3.009-.54.54-1.063-1.063.54-.54.523.523,1.243-1.243.54.54Zm4.6-1.292a.686.686,0,0,1-.18-.769l.1-.245a.676.676,0,0,0-.442-.916l-.262-.065a.683.683,0,0,1-.491-.622V16.11a.677.677,0,0,0-.785-.638l-.262.049a.647.647,0,0,1-.7-.344l-.131-.229a.674.674,0,0,0-.981-.229l-.213.147a.689.689,0,0,1-.785,0l-.213-.164a.68.68,0,0,0-1,.229l-.131.229a.681.681,0,0,1-.72.344l-.262-.049a.691.691,0,0,0-.8.638l-.016.262a.683.683,0,0,1-.491.622l-.262.082a.676.676,0,0,0-.442.916l.1.245a.685.685,0,0,1-.18.769l-.2.18a.668.668,0,0,0,0,1.014l.2.18a.686.686,0,0,1,.18.769l-.1.245a.676.676,0,0,0,.442.916l.262.065a.683.683,0,0,1,.491.622l.016.262a.677.677,0,0,0,.785.638l.262-.049a.647.647,0,0,1,.7.344l.131.229a.674.674,0,0,0,.981.229l.213-.147a.689.689,0,0,1,.785,0l.213.164a.68.68,0,0,0,1-.229l.131-.229a.681.681,0,0,1,.72-.344l.262.049a.691.691,0,0,0,.8-.638L180.5,23a.683.683,0,0,1,.491-.622l.262-.065a.676.676,0,0,0,.442-.916l-.1-.245a.685.685,0,0,1,.18-.769l.2-.18a.668.668,0,0,0,0-1.014ZM176.982,23a3.3,3.3,0,1,1,3.3-3.3A3.305,3.305,0,0,1,176.982,23Zm-5.135,5.757,1.6-4.007a1.707,1.707,0,0,0,.7.164,1.793,1.793,0,0,0,.294-.033h.033l.016.033a1.659,1.659,0,0,0,1.472.85,1.624,1.624,0,0,0,.491-.082l-1.685,4.236a.16.16,0,0,1-.294.016l-.8-1.407a.11.11,0,0,0-.131-.049l-1.5.474a.151.151,0,0,1-.2-.2Zm7.343,1.21-1.7-4.252a1.714,1.714,0,0,0,.491.082,1.659,1.659,0,0,0,1.472-.867l.016-.033h.033a1.806,1.806,0,0,0,.294.033,1.781,1.781,0,0,0,.72-.164l1.6,4.04a.157.157,0,0,1-.2.213l-1.5-.474a.11.11,0,0,0-.131.049l-.8,1.407a.177.177,0,0,1-.294-.033Z" fill="#f9f9f9"/>
  </g>
</svg>
