<svg xmlns="http://www.w3.org/2000/svg" width="96" height="96" viewBox="0 0 96 96">
  <g id="lock" transform="translate(-0.081 -0.081)">
    <rect id="Rectangle_2576" data-name="Rectangle 2576" width="96" height="96" transform="translate(0.081 0.081)" fill="#434343" opacity="0"/>
    <path id="Path_55888" data-name="Path 55888" d="M56.05,25.693h-4V18.126a16.016,16.016,0,0,0-32.031,0v7.567h-4A12.012,12.012,0,0,0,4,37.7V69.736A12.012,12.012,0,0,0,16.012,81.747H56.05A12.012,12.012,0,0,0,68.062,69.736V37.7A12.012,12.012,0,0,0,56.05,25.693ZM28.023,18.126a8.248,8.248,0,0,1,8.008-8.448,8.248,8.248,0,0,1,8.008,8.448v7.567H28.023Zm32.031,51.61a4,4,0,0,1-4,4H16.012a4,4,0,0,1-4-4V37.7a4,4,0,0,1,4-4H56.05a4,4,0,0,1,4,4Z" transform="translate(12.05 6.372)" fill="#434343"/>
    <path id="Path_55889" data-name="Path 55889" d="M21.012,12A12.012,12.012,0,1,0,33.023,24.012,12.012,12.012,0,0,0,21.012,12Zm0,16.016a4,4,0,1,1,4-4A4,4,0,0,1,21.012,28.016Z" transform="translate(27.069 36.081)" fill="#434343"/>
  </g>
</svg>
