<svg xmlns="http://www.w3.org/2000/svg" width="14.99" height="15.002" viewBox="0 0 14.99 15.002">
  <g id="noun-verify-2969189" transform="translate(-83.44 -13.438)">
    <path id="Path_55867" data-name="Path 55867" d="M98.1,20.261l-.693-.52a.86.86,0,0,1-.268-.993l.331-.8a.857.857,0,0,0-.678-1.166l-.867-.11a.836.836,0,0,1-.725-.725l-.11-.867A.857.857,0,0,0,93.92,14.4l-.8.331a.86.86,0,0,1-.993-.268l-.536-.693a.843.843,0,0,0-1.34,0l-.5.709a.86.86,0,0,1-.993.268l-.8-.347a.857.857,0,0,0-1.166.678l-.11.867a.836.836,0,0,1-.725.725l-.867.11a.857.857,0,0,0-.678,1.166l.331.8a.86.86,0,0,1-.268.993l-.693.536a.843.843,0,0,0,0,1.34l.709.52a.86.86,0,0,1,.268.993l-.347.8a.857.857,0,0,0,.678,1.166l.867.11a.836.836,0,0,1,.725.725l.11.867a.857.857,0,0,0,1.166.678l.8-.331a.86.86,0,0,1,.993.268l.536.693a.843.843,0,0,0,1.34,0l.536-.693a.86.86,0,0,1,.993-.268l.8.331a.857.857,0,0,0,1.166-.678l.11-.867a.836.836,0,0,1,.725-.725l.867-.11a.857.857,0,0,0,.678-1.166l-.331-.8a.86.86,0,0,1,.268-.993l.693-.536a.863.863,0,0,0-.032-1.339Zm-4.428-.173L90.815,22.94a.837.837,0,0,1-1.166,0l-1.434-1.434a.813.813,0,1,1,1.15-1.15l.851.851,2.3-2.269a.813.813,0,1,1,1.15,1.15Z" fill="#08d2ea"/>
  </g>
</svg>
