<svg id="Layer_2" data-name="Layer 2" xmlns="http://www.w3.org/2000/svg" width="24" height="24" viewBox="0 0 24 24">
<g id="shopping-cart">
  <rect id="Rectangle_5" data-name="Rectangle 5" width="24" height="24" opacity="0"/>
  <path id="Path_4" fill='black' data-name="Path 4" d="M21.08,7a2,2,0,0,0-1.7-1H6.58L6,3.74A1,1,0,0,0,5,3H3A1,1,0,0,0,3,5H4.24L7,15.26A1,1,0,0,0,8,16h9a1,1,0,0,0,.89-.55l3.28-6.56A2,2,0,0,0,21.08,7Zm-4.7,7H8.76L7.13,8H19.38Z"/>
  <circle id="Ellipse_1" fill='black' data-name="Ellipse 1" cx="1.5" cy="1.5" r="1.5" transform="translate(6 18)"/>
  <circle id="Ellipse_2" fill='black' data-name="Ellipse 2" cx="1.5" cy="1.5" r="1.5" transform="translate(16 18)"/>
</g>
</svg>
