<svg xmlns="http://www.w3.org/2000/svg" width="18.409" height="18.803" viewBox="0 0 18.409 18.803">
  <g id="noun-certificate-690384" transform="translate(-101.359 -26.32)">
    <path id="Path_55892" data-name="Path 55892" d="M117.734,26.32h-14.32a2.046,2.046,0,0,0-2.055,2.055V38.606a2.046,2.046,0,0,0,2.055,2.055H108a.7.7,0,0,0,.228.353.752.752,0,0,0,.623.187l-.54,3.923,2.262-1.806,2.241,1.806-.54-3.923a.83.83,0,0,0,.623-.187.938.938,0,0,0,.228-.353h4.587a2.046,2.046,0,0,0,2.055-2.055V28.375a2.028,2.028,0,0,0-2.034-2.055Zm1.37,12.266a1.382,1.382,0,0,1-1.37,1.37h-4.109a1,1,0,0,0,.249-.332.838.838,0,0,0-.1-.789.126.126,0,0,1,.021-.166.822.822,0,0,0,.291-.706.794.794,0,0,0-.436-.643h-.021a.131.131,0,0,1-.062-.166.786.786,0,0,0-.083-.768.81.81,0,0,0-.685-.353h-.021a.12.12,0,0,1-.125-.125.794.794,0,0,0-.436-.643.836.836,0,0,0-.768,0h-.021a.112.112,0,0,1-.166-.042V35.2a.784.784,0,0,0-.685-.353.858.858,0,0,0-.685.374.112.112,0,0,1-.166.042H109.7a.824.824,0,0,0-1.2.643.134.134,0,0,1-.125.125h-.021a.774.774,0,0,0-.664.353.842.842,0,0,0-.083.768.139.139,0,0,1-.062.166h-.021a.767.767,0,0,0-.436.643.886.886,0,0,0,.291.726.128.128,0,0,1,.021.166l-.021.021a.849.849,0,0,0-.1.768.827.827,0,0,0,.249.332h-4.109a1.382,1.382,0,0,1-1.37-1.37V28.375a1.382,1.382,0,0,1,1.37-1.37h14.32a1.382,1.382,0,0,1,1.37,1.37Zm-6.6,1.785a.175.175,0,0,1-.042.125.116.116,0,0,1-.125.021.81.81,0,0,0-1,.519c-.021.062-.062.083-.083.083a.175.175,0,0,1-.124-.042.829.829,0,0,0-1.121,0,.175.175,0,0,1-.125.042c-.021,0-.062-.021-.1-.083a.778.778,0,0,0-.747-.54.933.933,0,0,0-.228.021.116.116,0,0,1-.125-.021.176.176,0,0,1-.042-.125.824.824,0,0,0-.643-.913.225.225,0,0,1-.1-.083c0-.021-.021-.083.021-.125l.021-.021a.809.809,0,0,0-.145-1.1.152.152,0,0,1-.042-.125.142.142,0,0,1,.062-.1h.021a.81.81,0,0,0,.373-1.038.116.116,0,0,1,.021-.125.452.452,0,0,1,.1-.062h.021a.813.813,0,0,0,.809-.747.13.13,0,0,1,.062-.1q.031-.031.125,0h.021a.826.826,0,0,0,1.079-.27.189.189,0,0,1,.1-.062.1.1,0,0,1,.1.062l.291-.187-.27.208a.817.817,0,0,0,1.058.27h.021q.093-.031.125,0a.13.13,0,0,1,.062.1.811.811,0,0,0,.809.726h.021a.13.13,0,0,1,.1.062.116.116,0,0,1,.021.125.817.817,0,0,0,.373,1.038h.021a.1.1,0,0,1,.062.1.175.175,0,0,1-.042.125.786.786,0,0,0-.125,1.1c.042.042.021.1.021.125s-.042.062-.1.083a.835.835,0,0,0-.6.934Zm-1.93,2.075-1.328,1.079.249-1.847a.9.9,0,0,0,.249.1.776.776,0,0,0,.747-.208.155.155,0,0,1,.187,0,.8.8,0,0,0,.56.228.576.576,0,0,0,.187-.021,1.264,1.264,0,0,0,.249-.1l.249,1.847Z" fill="#000" stroke="#000" stroke-width="0.1" transform="translate(0 0)"/>
    <path id="Path_55893" data-name="Path 55893" d="M235.413,97V96.32H226.24V97Z" transform="translate(-120.253 -67.406)" fill="#000" stroke="#000" stroke-width="0.1"/>
    <path id="Path_55894" data-name="Path 55894" d="M211.12,153.44v.685h10.294v-.685Z" transform="translate(-105.693 -122.409)" fill="#000" stroke="#000" stroke-width="0.1"/>
    <path id="Path_55895" data-name="Path 55895" d="M253.68,210v.685h7.139V210Z" transform="translate(-146.676 -176.873)" fill="#000" stroke="#000" stroke-width="0.1"/>
  </g>
</svg>
