<svg xmlns="http://www.w3.org/2000/svg" width="22.177" height="17.356" viewBox="0 0 22.177 17.356">
  <path id="noun-courses-4026107" d="M28.058,16.239a.646.646,0,0,1,0,.927.7.7,0,0,1-.961,0,.646.646,0,0,1,0-.927.728.728,0,0,1,.961,0ZM18.53.088a.735.735,0,0,1,.7,0L29.608,5.712a.665.665,0,0,1,0,1.181l-1.45.784,0,.047v6.8a.71.71,0,0,1-1.409.092l-.006-.092,0-6.079-1.36.737v4.9a.61.61,0,0,1-.356.549,14.441,14.441,0,0,1-12.3,0,.615.615,0,0,1-.349-.463l-.006-.086v-4.9L8.15,6.894A.664.664,0,0,1,8.061,5.77l.089-.057Zm5.576,9.786-4.879,2.645a.735.735,0,0,1-.7,0L13.65,9.874v3.815l.311.132a13.131,13.131,0,0,0,9.837,0l.31-.132ZM18.879,1.457,9.936,6.3l8.942,4.845,6.449-3.494L19.974,5.637a.673.673,0,0,1-.429-.792l.029-.088a.715.715,0,0,1,.826-.411l.092.028,6.423,2.418L27.82,6.3Z"  transform="translate(-7.791 0)" fill="#000" stroke="#000" stroke-width="0.1"/>
</svg>
