<svg width="15" height="15" viewBox="0 0 15 15" fill="none" xmlns="http://www.w3.org/2000/svg">
<path d="M6.32812 2.59375H8.95312C8.95312 2.24565 8.81484 1.91181 8.5687 1.66567C8.32256 1.41953 7.98872 1.28125 7.64062 1.28125C7.29253 1.28125 6.95869 1.41953 6.71255 1.66567C6.46641 1.91181 6.32812 2.24565 6.32812 2.59375ZM5.45312 2.59375C5.45312 2.01359 5.68359 1.45719 6.09383 1.04695C6.50406 0.636718 7.06046 0.40625 7.64062 0.40625C8.22079 0.40625 8.77719 0.636718 9.18742 1.04695C9.59766 1.45719 9.82812 2.01359 9.82812 2.59375H14.2031C14.3192 2.59375 14.4304 2.63984 14.5125 2.72189C14.5945 2.80394 14.6406 2.91522 14.6406 3.03125C14.6406 3.14728 14.5945 3.25856 14.5125 3.34061C14.4304 3.42266 14.3192 3.46875 14.2031 3.46875H13.2809L12.2361 12.5197C12.1623 13.1595 11.8558 13.7499 11.375 14.1784C10.8942 14.6069 10.2727 14.8437 9.62862 14.8438H5.65263C5.00858 14.8437 4.38704 14.6069 3.90624 14.1784C3.42545 13.7499 3.11898 13.1595 3.04513 12.5197L2.00037 3.46875H1.07812C0.962093 3.46875 0.850813 3.42266 0.768766 3.34061C0.686719 3.25856 0.640625 3.14728 0.640625 3.03125C0.640625 2.91522 0.686719 2.80394 0.768766 2.72189C0.850813 2.63984 0.962093 2.59375 1.07812 2.59375H5.45312ZM3.914 12.42C3.96337 12.8465 4.16779 13.2399 4.48837 13.5255C4.80894 13.811 5.2233 13.9688 5.65263 13.9688H9.62862C10.0579 13.9688 10.4723 13.811 10.7929 13.5255C11.1135 13.2399 11.3179 12.8465 11.3672 12.42L12.3997 3.46875H2.8815L3.914 12.42ZM6.32812 5.65625C6.44416 5.65625 6.55544 5.70234 6.63748 5.78439C6.71953 5.86644 6.76562 5.97772 6.76562 6.09375V11.3438C6.76562 11.4598 6.71953 11.5711 6.63748 11.6531C6.55544 11.7352 6.44416 11.7812 6.32812 11.7812C6.21209 11.7812 6.10081 11.7352 6.01877 11.6531C5.93672 11.5711 5.89062 11.4598 5.89062 11.3438V6.09375C5.89062 5.97772 5.93672 5.86644 6.01877 5.78439C6.10081 5.70234 6.21209 5.65625 6.32812 5.65625ZM9.39062 6.09375C9.39062 5.97772 9.34453 5.86644 9.26248 5.78439C9.18044 5.70234 9.06916 5.65625 8.95312 5.65625C8.83709 5.65625 8.72581 5.70234 8.64377 5.78439C8.56172 5.86644 8.51562 5.97772 8.51562 6.09375V11.3438C8.51562 11.4598 8.56172 11.5711 8.64377 11.6531C8.72581 11.7352 8.83709 11.7812 8.95312 11.7812C9.06916 11.7812 9.18044 11.7352 9.26248 11.6531C9.34453 11.5711 9.39062 11.4598 9.39062 11.3438V6.09375Z" fill="#FF1D1D"/>
</svg>
