<svg xmlns="http://www.w3.org/2000/svg" width="59.202" height="53.281" viewBox="0 0 59.202 53.281">
  <g id="shopping-cart-commerce-and-shopping-svgrepo-com" transform="translate(0 -25.605)">
    <g id="Group_36109" data-name="Group 36109" transform="translate(18.748 42.379)">
      <g id="Group_36108" data-name="Group 36108" transform="translate(0 0)">
        <path id="Path_64737" data-name="Path 64737" d="M168.056,170.672a5.92,5.92,0,1,0,5.92,5.92A5.926,5.926,0,0,0,168.056,170.672Zm2.96,6.907H165.1a.987.987,0,1,1,0-1.973h5.92a.987.987,0,0,1,0,1.973Z" transform="translate(-162.136 -170.672)"/>
      </g>
    </g>
    <g id="Group_36111" data-name="Group 36111" transform="translate(4.203 56.192)">
      <g id="Group_36110" data-name="Group 36110">
        <path id="Path_64738" data-name="Path 64738" d="M46.637,294.492l-.7-3.947a.494.494,0,0,0-.485-.407h-8.6a.494.494,0,0,0-.483.594l.74,3.554a.988.988,0,0,0,.967.785h8.084A.493.493,0,0,0,46.637,294.492Z" transform="translate(-36.351 -290.139)"/>
      </g>
    </g>
    <g id="Group_36113" data-name="Group 36113" transform="translate(1.326 42.379)">
      <g id="Group_36112" data-name="Group 36112" transform="translate(0 0)">
        <path id="Path_64739" data-name="Path 64739" d="M22.163,175.025l-.7-3.947a.494.494,0,0,0-.485-.407H11.958a.493.493,0,0,0-.483.594l.822,3.947a.494.494,0,0,0,.483.393h8.9A.493.493,0,0,0,22.163,175.025Z" transform="translate(-11.465 -170.672)"/>
      </g>
    </g>
    <g id="Group_36115" data-name="Group 36115" transform="translate(0 35.472)">
      <g id="Group_36114" data-name="Group 36114" transform="translate(0)">
        <path id="Path_64740" data-name="Path 64740" d="M10.789,115.292l-.7-3.947a.492.492,0,0,0-.484-.407H.987a.986.986,0,0,0-.966,1.188l.7,3.353a.493.493,0,0,0,.483.393h9.1A.493.493,0,0,0,10.789,115.292Z" transform="translate(0 -110.939)"/>
      </g>
    </g>
    <g id="Group_36117" data-name="Group 36117" transform="translate(2.765 49.286)">
      <g id="Group_36116" data-name="Group 36116">
        <path id="Path_64741" data-name="Path 64741" d="M34.4,234.759l-.7-3.947a.494.494,0,0,0-.485-.407H24.4a.494.494,0,0,0-.483.594l.822,3.947a.494.494,0,0,0,.483.393h8.691A.493.493,0,0,0,34.4,234.759Z" transform="translate(-23.91 -230.406)"/>
      </g>
    </g>
    <g id="Group_36119" data-name="Group 36119" transform="translate(12.113 35.472)">
      <g id="Group_36118" data-name="Group 36118">
        <path id="Path_64742" data-name="Path 64742" d="M115.833,110.939H105.252a.493.493,0,0,0-.485.58l.7,3.947a.493.493,0,0,0,.485.407h9.877a.494.494,0,0,0,.493-.493v-3.947A.494.494,0,0,0,115.833,110.939Z" transform="translate(-104.759 -110.939)"/>
      </g>
    </g>
    <g id="Group_36121" data-name="Group 36121" transform="translate(25.654 35.472)">
      <g id="Group_36120" data-name="Group 36120">
        <path id="Path_64743" data-name="Path 64743" d="M232.954,110.939H222.362a.494.494,0,0,0-.493.493v3.947a.493.493,0,0,0,.493.493h9.91a.494.494,0,0,0,.486-.409l.681-3.947A.494.494,0,0,0,232.954,110.939Z" transform="translate(-221.869 -110.939)"/>
      </g>
    </g>
    <g id="Group_36123" data-name="Group 36123" transform="translate(36.187 49.285)">
      <g id="Group_36122" data-name="Group 36122">
        <path id="Path_64744" data-name="Path 64744" d="M321.64,230.4h-7.507a.494.494,0,0,0-.486.409l-.681,3.947a.493.493,0,0,0,.486.577h7.078a.492.492,0,0,0,.475-.36l1.11-3.947A.493.493,0,0,0,321.64,230.4Z" transform="translate(-312.958 -230.405)"/>
      </g>
    </g>
    <g id="Group_36125" data-name="Group 36125" transform="translate(37.378 42.379)">
      <g id="Group_36124" data-name="Group 36124" transform="translate(0 0)">
        <path id="Path_64745" data-name="Path 64745" d="M332.692,170.672h-8.259a.494.494,0,0,0-.486.409l-.681,3.947a.493.493,0,0,0,.486.577h7.829a.492.492,0,0,0,.475-.36l1.11-3.947A.493.493,0,0,0,332.692,170.672Z" transform="translate(-323.258 -170.672)"/>
      </g>
    </g>
    <g id="Group_36127" data-name="Group 36127" transform="translate(38.568 25.605)">
      <g id="Group_36126" data-name="Group 36126">
        <path id="Path_64746" data-name="Path 64746" d="M354.156,26.353a.987.987,0,0,0-1.2-.718l-7.894,1.973a.987.987,0,0,0-.71.69l-2.019,7.174h-7.611a.494.494,0,0,0-.486.409l-.681,3.947a.494.494,0,0,0,.486.577h8.581a.492.492,0,0,0,.475-.36l3-10.661,7.338-1.834A.988.988,0,0,0,354.156,26.353Z" transform="translate(-333.551 -25.605)"/>
      </g>
    </g>
    <g id="Group_36129" data-name="Group 36129" transform="translate(15.813 56.192)">
      <g id="Group_36128" data-name="Group 36128">
        <path id="Path_64747" data-name="Path 64747" d="M144.133,290.139h-6.881a.493.493,0,0,0-.485.58l.7,3.947a.493.493,0,0,0,.485.407h6.177a.494.494,0,0,0,.493-.493v-3.947A.494.494,0,0,0,144.133,290.139Z" transform="translate(-136.759 -290.139)"/>
      </g>
    </g>
    <g id="Group_36131" data-name="Group 36131" transform="translate(30.483 49.285)">
      <g id="Group_36130" data-name="Group 36130">
        <path id="Path_64748" data-name="Path 64748" d="M267.5,230.4h-1.45a.494.494,0,0,0-.481.407,9.356,9.356,0,0,1-1.83,3.719.493.493,0,0,0,.379.807h2.7a.492.492,0,0,0,.485-.409l.681-3.947A.494.494,0,0,0,267.5,230.4Z" transform="translate(-263.63 -230.405)"/>
      </g>
    </g>
    <g id="Group_36133" data-name="Group 36133" transform="translate(0 56.194)">
      <g id="Group_36132" data-name="Group 36132">
        <path id="Path_64749" data-name="Path 64749" d="M59.156,307.232a4.968,4.968,0,0,0-3.61-4.079,4.832,4.832,0,0,0-3.83.563l-9.174-9.88.858-3.054a.493.493,0,0,0-.475-.627H36.169a.494.494,0,0,0-.486.409L35,294.512a.5.5,0,0,0,.488.575h5.522l4.581,4.933H6.908a.986.986,0,0,0-.948.715l-.652,2.282c-.125-.009-.246-.037-.373-.037a5,5,0,1,0,2.27.579l.447-1.566h39.71c.019,0,.035-.01.053-.011l2.851,3.07a4.887,4.887,0,0,0-.807,3.963,4.934,4.934,0,0,0,9.7-1.784Zm-51.262.683a2.96,2.96,0,1,1-3.146-2.94l-.763,2.67a.986.986,0,0,0,.678,1.22,1,1,0,0,0,.271.038.988.988,0,0,0,.948-.716l.765-2.676A2.955,2.955,0,0,1,7.895,307.914Zm45.923,2.927a3.006,3.006,0,0,1-2.4-2.162,2.844,2.844,0,0,1,.242-2.127l1.889,2.035a.988.988,0,0,0,1.447-1.344l-1.9-2.043a2.94,2.94,0,0,1,1.815-.176,2.961,2.961,0,0,1-1.091,5.817Z" transform="translate(-0.001 -290.156)"/>
      </g>
    </g>
    <g id="Group_36135" data-name="Group 36135" transform="translate(30.483 42.379)">
      <g id="Group_36134" data-name="Group 36134" transform="translate(0 0)">
        <path id="Path_64750" data-name="Path 64750" d="M268.7,170.672h-4.574a.493.493,0,0,0-.379.807,9.346,9.346,0,0,1,1.83,3.719.493.493,0,0,0,.482.407h1.961a.493.493,0,0,0,.486-.409l.681-3.947A.494.494,0,0,0,268.7,170.672Z" transform="translate(-263.631 -170.672)"/>
      </g>
    </g>
    <g id="Group_36137" data-name="Group 36137" transform="translate(25.654 56.192)">
      <g id="Group_36136" data-name="Group 36136">
        <path id="Path_64751" data-name="Path 64751" d="M229.381,290.139h-7.018a.494.494,0,0,0-.493.493v3.947a.494.494,0,0,0,.493.493H228.7a.494.494,0,0,0,.486-.409l.681-3.947A.5.5,0,0,0,229.381,290.139Z" transform="translate(-221.869 -290.139)"/>
      </g>
    </g>
    <g id="Group_36139" data-name="Group 36139" transform="translate(13.302 42.379)">
      <g id="Group_36138" data-name="Group 36138" transform="translate(0 0)">
        <path id="Path_64752" data-name="Path 64752" d="M120.107,170.672h-4.574a.494.494,0,0,0-.486.577l.681,3.947a.492.492,0,0,0,.485.409h1.961a.5.5,0,0,0,.483-.407,9.355,9.355,0,0,1,1.83-3.719A.494.494,0,0,0,120.107,170.672Z" transform="translate(-115.039 -170.672)"/>
      </g>
    </g>
    <g id="Group_36141" data-name="Group 36141" transform="translate(14.493 49.286)">
      <g id="Group_36140" data-name="Group 36140">
        <path id="Path_64753" data-name="Path 64753" d="M129.595,234.532a9.361,9.361,0,0,1-1.83-3.719.5.5,0,0,0-.481-.407h-1.45a.494.494,0,0,0-.486.577l.681,3.947a.492.492,0,0,0,.485.409h2.7A.493.493,0,0,0,129.595,234.532Z" transform="translate(-125.339 -230.406)"/>
      </g>
    </g>
  </g>
</svg>
