<svg xmlns="http://www.w3.org/2000/svg" width="19" height="19" viewBox="0 0 19 19">
  <g id="Group_35514" data-name="Group 35514" transform="translate(-29 -351)">
    <g id="phone-incoming" transform="translate(29 351)">
      <rect id="Rectangle_3034" data-name="Rectangle 3034" width="19" height="19" fill="none"/>
      <path id="Path_55929" data-name="Path 55929" d="M43.942,39.278A6.277,6.277,0,0,0,46.87,42.2a.6.6,0,0,0,.593-.045L49.341,40.9a.593.593,0,0,1,.571-.053l3.514,1.509a.593.593,0,0,1,.36.623,3.6,3.6,0,0,1-3.574,3.146A10.212,10.212,0,0,1,40,35.914a3.6,3.6,0,0,1,3.145-3.574.593.593,0,0,1,.624.36l1.509,3.521a.6.6,0,0,1-.045.563l-1.254,1.907A.6.6,0,0,0,43.942,39.278Z" transform="translate(-36.997 -29.907)" fill="none" stroke="#000" stroke-linecap="round" stroke-linejoin="round" stroke-width="1"/>
    </g>
  </g>
</svg>
