<svg xmlns="http://www.w3.org/2000/svg" width="10.884" height="10.978" viewBox="0 0 10.884 10.978">
  <path id="Path_55896" data-name="Path 55896" d="M6.093,8.626a1.636,1.636,0,0,0,0-1.46m0,1.46a1.632,1.632,0,1,1,0-1.46m0,1.46L9.7,10.43M6.093,7.166,9.7,5.362m0,0a1.632,1.632,0,1,0,.73-2.19,1.632,1.632,0,0,0-.73,2.19Zm0,5.068a1.632,1.632,0,1,0,2.19-.73,1.632,1.632,0,0,0-2.19.73Z" transform="translate(-2.501 -2.407)" fill="none" stroke="#000" stroke-linecap="round" stroke-linejoin="round" stroke-width="1"/>
</svg>
