<svg id="Component_27_1" data-name="Component 27 – 1" xmlns="http://www.w3.org/2000/svg" width="18.674" height="17.859" viewBox="0 0 18.674 17.859">
  <path id="Path_55924" data-name="Path 55924" d="M11.049,2.927a1,1,0,0,1,1.9,0L14.47,7.6a1,1,0,0,0,.95.69h4.915a1,1,0,0,1,.588,1.81l-3.976,2.888a1,1,0,0,0-.363,1.118L18.1,18.781A1,1,0,0,1,16.564,19.9l-3.976-2.888a1,1,0,0,0-1.176,0L7.436,19.9A1,1,0,0,1,5.9,18.781l1.518-4.674a1,1,0,0,0-.363-1.118L3.077,10.1a1,1,0,0,1,.588-1.81H8.579A1,1,0,0,0,9.53,7.6l1.519-4.674Z" transform="translate(-2.663 -2.236)" fill="#f3c803"/>
</svg>
