<svg xmlns="http://www.w3.org/2000/svg" width="17" height="17" viewBox="0 0 17 17">
  <g id="Layer_2" data-name="Layer 2" transform="translate(-0.141 -0.141)">
    <g id="people" transform="translate(0.141 0.141)">
      <rect id="Rectangle_25" data-name="Rectangle 25" width="17" height="17" transform="translate(0)" fill="#878787" opacity="0"/>
      <path id="Path_17" data-name="Path 17" d="M7.873,8.746A2.873,2.873,0,1,0,5,5.873,2.873,2.873,0,0,0,7.873,8.746Zm0-4.31A1.437,1.437,0,1,1,6.437,5.873,1.437,1.437,0,0,1,7.873,4.437Z" transform="translate(-1.528 -0.965)" fill="#878787"/>
      <path id="Path_18" data-name="Path 18" d="M16.155,11.31A2.155,2.155,0,1,0,14,9.155,2.155,2.155,0,0,0,16.155,11.31Zm0-2.873a.718.718,0,1,1-.718.718A.718.718,0,0,1,16.155,8.437Z" transform="translate(-4.063 -2.091)" fill="#878787"/>
      <path id="Path_19" data-name="Path 19" d="M12.774,13.721a3.591,3.591,0,0,0-2.2.754A5.028,5.028,0,0,0,2,18.031a.718.718,0,1,0,1.437,0,3.591,3.591,0,1,1,7.183,0,.718.718,0,1,0,1.437,0,4.956,4.956,0,0,0-.618-2.406,2.155,2.155,0,0,1,3.491,1.688.718.718,0,1,0,1.437,0A3.591,3.591,0,0,0,12.774,13.721Z" transform="translate(-0.683 -3.784)" fill="#878787"/>
    </g>
  </g>
</svg>
